<svg width="48" height="48" viewBox="0 0 48 48" fill="none" xmlns="http://www.w3.org/2000/svg">
<g id="Map pin">
<path id="Icon" d="M24 46L23.7227 46.416C23.8906 46.528 24.1094 46.528 24.2773 46.416L24 46ZM24 46C24.2773 46.416 24.2775 46.4159 24.2778 46.4157L24.2786 46.4152L24.2815 46.4132L24.2922 46.4061L24.3326 46.3788C24.3678 46.3548 24.4196 46.3194 24.4868 46.2729C24.6212 46.1798 24.8173 46.0421 25.0662 45.8624C25.5639 45.5029 26.2734 44.9747 27.124 44.2974C28.8243 42.9434 31.0928 40.9902 33.363 38.5939C37.8829 33.8229 42.5 27.201 42.5 20C42.5 15.0935 40.5509 10.3879 37.0815 6.91852C33.6121 3.4491 28.9065 1.5 24 1.5C19.0935 1.5 14.3879 3.4491 10.9185 6.91852C7.4491 10.3879 5.5 15.0935 5.5 20C5.5 27.201 10.1171 33.8229 14.637 38.5939C16.9072 40.9902 19.1757 42.9434 20.876 44.2974C21.7266 44.9747 22.4361 45.5029 22.9338 45.8624C23.1827 46.0421 23.3788 46.1798 23.5132 46.2729C23.5804 46.3194 23.6322 46.3548 23.6674 46.3788L23.7078 46.4061L23.7185 46.4132L23.7214 46.4152L23.7222 46.4157C23.7225 46.4159 23.7227 46.416 24 46Z" fill="#D68C45" stroke="white" stroke-linecap="round" stroke-linejoin="round"/>
</g>
</svg>
